<svg version="1.1" xmlns="http://www.w3.org/2000/svg" xmlns:xlink="http://www.w3.org/1999/xlink" preserveAspectRatio="xMidYMid meet" viewBox="0 0 300 335" width="300" height="400"><defs><path d="M124.37 139.64C122.14 139.94 120.29 141.75 119.61 144.26C119.6 144.3 119.55 144.48 119.47 144.8L119.45 152.66L119.44 160.52C119.76 160.19 119.94 160 119.97 159.96C120.83 159.07 121.86 158.38 122.9 157.99C123.77 157.67 124.31 157.58 125.42 157.58C126.36 157.59 126.53 157.6 127.14 157.78C129.04 158.31 130.08 159.05 132.83 161.82C134.25 163.26 145.93 174.54 146.27 174.79C147.06 175.41 148.12 175.94 148.91 176.11C149.51 176.25 150.85 176.21 151.42 176.04C152.37 175.76 153.31 175.22 153.94 174.62C159.06 169.67 166.19 162.74 167.46 161.47C169.62 159.33 170.22 158.81 171.09 158.34C172.22 157.72 173.2 157.48 174.58 157.48C176.61 157.48 178.59 158.34 180.06 159.87C180.31 160.13 180.54 160.35 180.55 160.35C180.57 160.35 180.57 156.91 180.55 152.71C180.53 144.3 180.55 144.72 180.13 143.56C179.59 142.03 178.24 140.57 176.84 139.98C175.53 139.44 174.31 139.33 173.17 139.66C172.49 139.87 171.67 140.26 171.2 140.61C170.63 141.02 169.95 141.68 159.96 151.39C159.3 152.04 155.97 155.28 149.97 161.1C149.84 160.96 149.77 160.89 149.75 160.87C149.2 160.3 129.62 141.33 129.17 140.93C128.22 140.08 127.06 139.6 125.71 139.49C125.47 139.47 125.18 139.47 125.08 139.51C124.98 139.54 124.66 139.6 124.37 139.64Z" id="accWZHkyx"></path><path d="M168.77 163.99C168.76 164.02 168.71 164.19 168.62 164.49C168.61 173.44 168.61 178.41 168.61 179.41C168.59 193.79 168.59 194.35 168.71 194.96C169.07 196.84 170.16 198.42 171.71 199.29C172.66 199.82 173.4 200 174.57 200C176.28 200 177.61 199.41 178.78 198.11C179.67 197.14 180.16 196.17 180.42 194.87C180.53 194.31 180.54 193.57 180.54 179.66C180.54 166.32 180.53 164.99 180.44 164.56C180.16 163.32 179.65 162.32 178.8 161.38C178.02 160.52 177.15 159.96 176.12 159.66C175.4 159.45 173.99 159.42 173.26 159.59C171.11 160.1 169.4 161.77 168.77 163.99Z" id="bIzwhBG1c"></path><path d="M122.94 160.11C121.57 160.78 120.33 162.2 119.82 163.62C119.41 164.78 119.43 163.8 119.44 180C119.45 180.98 119.45 185.88 119.46 194.7C119.55 195.01 119.59 195.19 119.6 195.22C120.04 196.87 120.81 198.04 122.04 198.93C123.08 199.68 124.09 200 125.42 200C127.2 200 128.55 199.37 129.77 197.97C130.5 197.12 130.97 196.19 131.24 195.09C131.25 195.05 131.29 194.85 131.38 194.49L131.38 179.76L131.38 165.03C131.29 164.67 131.25 164.47 131.24 164.43C130.95 163.23 130.45 162.3 129.58 161.38C128.43 160.16 126.92 159.51 125.31 159.54C125.04 159.55 124.74 159.57 124.63 159.58C124.13 159.65 123.35 159.89 122.94 160.11Z" id="a96B0fVwo"></path></defs><g><g><g><use xlink:href="#accWZHkyx" opacity="0.6" fill="#dcdcdc" fill-opacity="0.6"></use><g><use xlink:href="#accWZHkyx" opacity="0.6" fill-opacity="0.6" stroke="#dcdcdc" stroke-width="1" stroke-opacity="0"></use></g></g><g><use xlink:href="#bIzwhBG1c" opacity="0.6" fill="#dcdcdc" fill-opacity="0.6"></use><g><use xlink:href="#bIzwhBG1c" opacity="0.6" fill-opacity="0.6" stroke="#dcdcdc" stroke-width="1" stroke-opacity="0"></use></g></g><g><use xlink:href="#a96B0fVwo" opacity="0.6" fill="#dcdcdc" fill-opacity="0.6"></use><g><use xlink:href="#a96B0fVwo" opacity="0.6" fill-opacity="0.6" stroke="#dcdcdc" stroke-width="1" stroke-opacity="0"></use></g></g></g></g></svg>
